<mxfile host="app.diagrams.net" modified="2024-08-12T01:24:27.985Z" agent="Mozilla/5.0 (Windows NT 10.0; Win64; x64) AppleWebKit/537.36 (KHTML, like Gecko) Chrome/127.0.0.0 Safari/537.36" version="24.4.4" etag="lCd2G6yaJ3I6IXglzIf1" type="github">
  <diagram name="第 1 页" id="iZwR2aXovw1xZzJlFREm">
    <mxGraphModel>
      <root>
        <mxCell id="0" />
        <mxCell id="1" parent="0" />
      </root>
    </mxGraphModel>
  </diagram>
</mxfile>
